# xmcd CD database file
#
# Track frame offsets:
#	150
#	19638
#	39789
#	61162
#	78834
#	98730
#	118132
#	138863
#	160152
#	180393
#	201829
#	222687
#	244566
#	265592
#
# Disc length: 3797 seconds
#
# Revision: 0
# Processed by: cddbd v1.5.1PL0 Copyright (c) Steve Scherf et al.
# Submitted via: CDex 1.51
#
DISCID=ae0ed30e
DTITLE=Celia Cruz - La Negra Tiene Tumbao
DYEAR=1995
DGENRE=Salsa
TTITLE0=La Negra Tiene Tumbao
TTITLE1=Pa' Arriba No Va
TTITLE2=Hay Q Empezar Otra Vez
TTITLE3=Tararea Kumbayea
TTITLE4=Corazon De Rumba
TTITLE5=Dejenme Vivir
TTITLE6=Que Culpa Tengo Yo
TTITLE7=Mi Mercancia
TTITLE8=Taita Bilongo
TTITLE9=Sin Clave No Hay Son
TTITLE10=La Vida Es Un Carnaval
TTITLE11=Quimbara
TTITLE12=Rumberos Del Ayer
TTITLE13=Usted Abuso
EXTD=YEAR: 1995
EXTT0=
EXTT1=
EXTT2=
EXTT3=
EXTT4=
EXTT5=
EXTT6=
EXTT7=
EXTT8=
EXTT9=
EXTT10=
EXTT11=
EXTT12=
EXTT13=
PLAYORDER=
